<svg width="1216" height="127" viewBox="0 0 1216 127" fill="none" xmlns="http://www.w3.org/2000/svg">
<g id="Bin Overlay">
<g id="Fret Cells">
<g id="F0">
<rect id="bin_s6_f0" x="1.25" y="0.75" width="34.5" height="20.5" fill="#222222" stroke="#585858" stroke-width="0.5"/>
<rect id="bin_s5_f0" x="1.25" y="21.75" width="34.5" height="20.5" fill="#222222" stroke="#585858" stroke-width="0.5"/>
<rect id="bin_s4_f0" x="1.25" y="42.75" width="34.5" height="20.5" fill="#222222" stroke="#585858" stroke-width="0.5"/>
<rect id="bin_s3_f0" x="1.25" y="63.75" width="34.5" height="20.5" fill="#222222" stroke="#585858" stroke-width="0.5"/>
<rect id="bin_s2_f0" x="1.25" y="84.75" width="34.5" height="20.5" fill="#222222" stroke="#585858" stroke-width="0.5"/>
<rect id="bin_s1_f0" x="1.25" y="105.75" width="34.5" height="20.5" fill="#222222" stroke="#585858" stroke-width="0.5"/>
</g>
<g id="F1">
<rect id="bin_s6_f1" x="38.25" y="0.75" width="89.5" height="20.5" fill="#222222" stroke="#585858" stroke-width="0.5"/>
<rect id="bin_s5_f1" x="38.25" y="21.75" width="89.5" height="20.5" fill="#222222" stroke="#585858" stroke-width="0.5"/>
<rect id="bin_s4_f1" x="38.25" y="42.75" width="89.5" height="20.5" fill="#222222" stroke="#585858" stroke-width="0.5"/>
<rect id="bin_s3_f1" x="38.25" y="63.75" width="89.5" height="20.5" fill="#222222" stroke="#585858" stroke-width="0.5"/>
<rect id="bin_s2_f1" x="38.25" y="84.75" width="89.5" height="20.5" fill="#222222" stroke="#585858" stroke-width="0.5"/>
<rect id="bin_s1_f1" x="38.25" y="105.75" width="89.5" height="20.5" fill="#222222" stroke="#585858" stroke-width="0.5"/>
</g>
<g id="F2">
<rect id="bin_s6_f2" x="128.25" y="0.75" width="81.5" height="20.5" fill="#222222" stroke="#585858" stroke-width="0.5"/>
<rect id="bin_s5_f2" x="128.25" y="21.75" width="81.5" height="20.5" fill="#222222" stroke="#585858" stroke-width="0.5"/>
<rect id="bin_s4_f2" x="128.25" y="42.75" width="81.5" height="20.5" fill="#222222" stroke="#585858" stroke-width="0.5"/>
<rect id="bin_s3_f2" x="128.25" y="63.75" width="81.5" height="20.5" fill="#222222" stroke="#585858" stroke-width="0.5"/>
<rect id="bin_s2_f2" x="128.25" y="84.75" width="81.5" height="20.5" fill="#222222" stroke="#585858" stroke-width="0.5"/>
<rect id="bin_s1_f2" x="128.25" y="105.75" width="81.5" height="20.5" fill="#222222" stroke="#585858" stroke-width="0.5"/>
</g>
<g id="F3">
<rect id="bin_s6_f3" x="211.25" y="0.75" width="76.5" height="20.5" fill="#222222" stroke="#585858" stroke-width="0.5"/>
<rect id="bin_s5_f3" x="211.25" y="21.75" width="76.5" height="20.5" fill="#222222" stroke="#585858" stroke-width="0.5"/>
<rect id="bin_s4_f3" x="211.25" y="42.75" width="76.5" height="20.5" fill="#222222" stroke="#585858" stroke-width="0.5"/>
<rect id="bin_s3_f3" x="211.25" y="63.75" width="76.5" height="20.5" fill="#222222" stroke="#585858" stroke-width="0.5"/>
<rect id="bin_s2_f3" x="211.25" y="84.75" width="76.5" height="20.5" fill="#222222" stroke="#585858" stroke-width="0.5"/>
<rect id="bin_s1_f3" x="211.25" y="105.75" width="76.5" height="20.5" fill="#222222" stroke="#585858" stroke-width="0.5"/>
</g>
<g id="F4">
<rect id="bin_s6_f4" x="289.25" y="0.75" width="72.5" height="20.5" fill="#222222" stroke="#585858" stroke-width="0.5"/>
<rect id="bin_s5_f4" x="289.25" y="21.75" width="72.5" height="20.5" fill="#222222" stroke="#585858" stroke-width="0.5"/>
<rect id="bin_s4_f4" x="289.25" y="42.75" width="72.5" height="20.5" fill="#222222" stroke="#585858" stroke-width="0.5"/>
<rect id="bin_s3_f4" x="289.25" y="63.75" width="72.5" height="20.5" fill="#222222" stroke="#585858" stroke-width="0.5"/>
<rect id="bin_s2_f4" x="289.25" y="84.75" width="72.5" height="20.5" fill="#222222" stroke="#585858" stroke-width="0.5"/>
<rect id="bin_s1_f4" x="289.25" y="105.75" width="72.5" height="20.5" fill="#222222" stroke="#585858" stroke-width="0.5"/>
</g>
<g id="F5">
<rect id="bin_s6_f5" x="363.25" y="0.75" width="68.5" height="20.5" fill="#222222" stroke="#585858" stroke-width="0.5"/>
<rect id="bin_s5_f5" x="363.25" y="21.75" width="68.5" height="20.5" fill="#222222" stroke="#585858" stroke-width="0.5"/>
<rect id="bin_s4_f5" x="363.25" y="42.75" width="68.5" height="20.5" fill="#222222" stroke="#585858" stroke-width="0.5"/>
<rect id="bin_s3_f5" x="363.25" y="63.75" width="68.5" height="20.5" fill="#222222" stroke="#585858" stroke-width="0.5"/>
<rect id="bin_s2_f5" x="363.25" y="84.75" width="68.5" height="20.5" fill="#222222" stroke="#585858" stroke-width="0.5"/>
<rect id="bin_s1_f5" x="363.25" y="105.75" width="68.5" height="20.5" fill="#222222" stroke="#585858" stroke-width="0.5"/>
</g>
<g id="F6">
<rect id="bin_s6_f6" x="433.25" y="0.75" width="64.5" height="20.5" fill="#222222" stroke="#585858" stroke-width="0.5"/>
<rect id="bin_s5_f6" x="433.25" y="21.75" width="64.5" height="20.5" fill="#222222" stroke="#585858" stroke-width="0.5"/>
<rect id="bin_s4_f6" x="433.25" y="42.75" width="64.5" height="20.5" fill="#222222" stroke="#585858" stroke-width="0.5"/>
<rect id="bin_s3_f6" x="433.25" y="63.75" width="64.5" height="20.5" fill="#222222" stroke="#585858" stroke-width="0.5"/>
<rect id="bin_s2_f6" x="433.25" y="84.75" width="64.5" height="20.5" fill="#222222" stroke="#585858" stroke-width="0.5"/>
<rect id="bin_s1_f6" x="433.25" y="105.75" width="64.5" height="20.5" fill="#222222" stroke="#585858" stroke-width="0.5"/>
</g>
<g id="F7">
<rect id="bin_s6_f7" x="499.25" y="0.75" width="61.5" height="20.5" fill="#222222" stroke="#585858" stroke-width="0.5"/>
<rect id="bin_s5_f7" x="499.25" y="21.75" width="61.5" height="20.5" fill="#222222" stroke="#585858" stroke-width="0.5"/>
<rect id="bin_s4_f7" x="499.25" y="42.75" width="61.5" height="20.5" fill="#222222" stroke="#585858" stroke-width="0.5"/>
<rect id="bin_s3_f7" x="499.25" y="63.75" width="61.5" height="20.5" fill="#222222" stroke="#585858" stroke-width="0.5"/>
<rect id="bin_s2_f7" x="499.25" y="84.75" width="61.5" height="20.5" fill="#222222" stroke="#585858" stroke-width="0.5"/>
<rect id="bin_s1_f7" x="499.25" y="105.75" width="61.5" height="20.5" fill="#222222" stroke="#585858" stroke-width="0.5"/>
</g>
<g id="F8">
<rect id="bin_s6_f8" x="562.25" y="0.75" width="56.5" height="20.5" fill="#222222" stroke="#585858" stroke-width="0.5"/>
<rect id="bin_s5_f8" x="562.25" y="21.75" width="56.5" height="20.5" fill="#222222" stroke="#585858" stroke-width="0.5"/>
<rect id="bin_s4_f8" x="562.25" y="42.75" width="56.5" height="20.5" fill="#222222" stroke="#585858" stroke-width="0.5"/>
<rect id="bin_s3_f8" x="562.25" y="63.75" width="56.5" height="20.5" fill="#222222" stroke="#585858" stroke-width="0.5"/>
<rect id="bin_s2_f8" x="562.25" y="84.75" width="56.5" height="20.5" fill="#222222" stroke="#585858" stroke-width="0.5"/>
<rect id="bin_s1_f8" x="562.25" y="105.75" width="56.5" height="20.5" fill="#222222" stroke="#585858" stroke-width="0.5"/>
</g>
<g id="F9">
<rect id="bin_s6_f9" x="620.25" y="0.75" width="54.5" height="20.5" fill="#222222" stroke="#585858" stroke-width="0.5"/>
<rect id="bin_s5_f9" x="620.25" y="21.75" width="54.5" height="20.5" fill="#222222" stroke="#585858" stroke-width="0.5"/>
<rect id="bin_s4_f9" x="620.25" y="42.75" width="54.5" height="20.5" fill="#222222" stroke="#585858" stroke-width="0.5"/>
<rect id="bin_s3_f9" x="620.25" y="63.75" width="54.5" height="20.5" fill="#222222" stroke="#585858" stroke-width="0.5"/>
<rect id="bin_s2_f9" x="620.25" y="84.75" width="54.5" height="20.5" fill="#222222" stroke="#585858" stroke-width="0.5"/>
<rect id="bin_s1_f9" x="620.25" y="105.75" width="54.5" height="20.5" fill="#222222" stroke="#585858" stroke-width="0.5"/>
</g>
<g id="F10">
<rect id="bin_s6_f10" x="676.25" y="0.75" width="50.5" height="20.5" fill="#222222" stroke="#585858" stroke-width="0.5"/>
<rect id="bin_s5_f10" x="676.25" y="21.75" width="50.5" height="20.5" fill="#222222" stroke="#585858" stroke-width="0.5"/>
<rect id="bin_s4_f10" x="676.25" y="42.75" width="50.5" height="20.5" fill="#222222" stroke="#585858" stroke-width="0.5"/>
<rect id="bin_s3_f10" x="676.25" y="63.75" width="50.5" height="20.5" fill="#222222" stroke="#585858" stroke-width="0.5"/>
<rect id="bin_s2_f10" x="676.25" y="84.75" width="50.5" height="20.5" fill="#222222" stroke="#585858" stroke-width="0.5"/>
<rect id="bin_s1_f10" x="676.25" y="105.75" width="50.5" height="20.5" fill="#222222" stroke="#585858" stroke-width="0.5"/>
</g>
<g id="F11">
<rect id="bin_s6_f11" x="728.25" y="0.75" width="47.5" height="20.5" fill="#222222" stroke="#585858" stroke-width="0.5"/>
<rect id="bin_s5_f11" x="728.25" y="21.75" width="47.5" height="20.5" fill="#222222" stroke="#585858" stroke-width="0.5"/>
<rect id="bin_s4_f11" x="728.25" y="42.75" width="47.5" height="20.5" fill="#222222" stroke="#585858" stroke-width="0.5"/>
<rect id="bin_s3_f11" x="728.25" y="63.75" width="47.5" height="20.5" fill="#222222" stroke="#585858" stroke-width="0.5"/>
<rect id="bin_s2_f11" x="728.25" y="84.75" width="47.5" height="20.5" fill="#222222" stroke="#585858" stroke-width="0.5"/>
<rect id="bin_s1_f11" x="728.25" y="105.75" width="47.5" height="20.5" fill="#222222" stroke="#585858" stroke-width="0.5"/>
</g>
<g id="F12">
<rect id="bin_s6_f12" x="777.25" y="0.75" width="45.5" height="20.5" fill="#222222" stroke="#585858" stroke-width="0.5"/>
<rect id="bin_s5_f12" x="777.25" y="21.75" width="45.5" height="20.5" fill="#222222" stroke="#585858" stroke-width="0.5"/>
<rect id="bin_s4_f12" x="777.25" y="42.75" width="45.5" height="20.5" fill="#222222" stroke="#585858" stroke-width="0.5"/>
<rect id="bin_s3_f12" x="777.25" y="63.75" width="45.5" height="20.5" fill="#222222" stroke="#585858" stroke-width="0.5"/>
<rect id="bin_s2_f12" x="777.25" y="84.75" width="45.5" height="20.5" fill="#222222" stroke="#585858" stroke-width="0.5"/>
<rect id="bin_s1_f12" x="777.25" y="105.75" width="45.5" height="20.5" fill="#222222" stroke="#585858" stroke-width="0.5"/>
</g>
<g id="F13">
<rect id="bin_s6_f13" x="824.25" y="0.75" width="42.5" height="20.5" fill="#222222" stroke="#585858" stroke-width="0.5"/>
<rect id="bin_s5_f13" x="824.25" y="21.75" width="42.5" height="20.5" fill="#222222" stroke="#585858" stroke-width="0.5"/>
<rect id="bin_s4_f13" x="824.25" y="42.75" width="42.5" height="20.5" fill="#222222" stroke="#585858" stroke-width="0.5"/>
<rect id="bin_s3_f13" x="824.25" y="63.75" width="42.5" height="20.5" fill="#222222" stroke="#585858" stroke-width="0.5"/>
<rect id="bin_s2_f13" x="824.25" y="84.75" width="42.5" height="20.5" fill="#222222" stroke="#585858" stroke-width="0.5"/>
<rect id="bin_s1_f13" x="824.25" y="105.75" width="42.5" height="20.5" fill="#222222" stroke="#585858" stroke-width="0.5"/>
</g>
<g id="F14">
<rect id="bin_s6_f14" x="868.25" y="0.75" width="39.5" height="20.5" fill="#222222" stroke="#585858" stroke-width="0.5"/>
<rect id="bin_s5_f14" x="868.25" y="21.75" width="39.5" height="20.5" fill="#222222" stroke="#585858" stroke-width="0.5"/>
<rect id="bin_s4_f14" x="868.25" y="42.75" width="39.5" height="20.5" fill="#222222" stroke="#585858" stroke-width="0.5"/>
<rect id="bin_s3_f14" x="868.25" y="63.75" width="39.5" height="20.5" fill="#222222" stroke="#585858" stroke-width="0.5"/>
<rect id="bin_s2_f14" x="868.25" y="84.75" width="39.5" height="20.5" fill="#222222" stroke="#585858" stroke-width="0.5"/>
<rect id="bin_s1_f14" x="868.25" y="105.75" width="39.5" height="20.5" fill="#222222" stroke="#585858" stroke-width="0.5"/>
</g>
<g id="F15">
<rect id="bin_s6_f15" x="909.25" y="0.75" width="38" height="20.5" fill="#222222" stroke="#585858" stroke-width="0.5"/>
<rect id="bin_s5_f15" x="909.25" y="21.75" width="38" height="20.5" fill="#222222" stroke="#585858" stroke-width="0.5"/>
<rect id="bin_s4_f15" x="909.25" y="42.75" width="38" height="20.5" fill="#222222" stroke="#585858" stroke-width="0.5"/>
<rect id="bin_s3_f15" x="909.25" y="63.75" width="38" height="20.5" fill="#222222" stroke="#585858" stroke-width="0.5"/>
<rect id="bin_s2_f15" x="909.25" y="84.75" width="38" height="20.5" fill="#222222" stroke="#585858" stroke-width="0.5"/>
<rect id="bin_s1_f15" x="909.25" y="105.75" width="38" height="20.5" fill="#222222" stroke="#585858" stroke-width="0.5"/>
</g>
<g id="F16">
<rect id="bin_s6_f16" x="948.75" y="0.75" width="35.5" height="20.5" fill="#222222" stroke="#585858" stroke-width="0.5"/>
<rect id="bin_s5_f16" x="948.75" y="21.75" width="35.5" height="20.5" fill="#222222" stroke="#585858" stroke-width="0.5"/>
<rect id="bin_s4_f16" x="948.75" y="42.75" width="35.5" height="20.5" fill="#222222" stroke="#585858" stroke-width="0.5"/>
<rect id="bin_s3_f16" x="948.75" y="63.75" width="35.5" height="20.5" fill="#222222" stroke="#585858" stroke-width="0.5"/>
<rect id="bin_s2_f16" x="948.75" y="84.75" width="35.5" height="20.5" fill="#222222" stroke="#585858" stroke-width="0.5"/>
<rect id="bin_s1_f16" x="948.75" y="105.75" width="35.5" height="20.5" fill="#222222" stroke="#585858" stroke-width="0.5"/>
</g>
<g id="F17">
<rect id="bin_s6_f17" x="985.75" y="0.75" width="33.5" height="20.5" fill="#222222" stroke="#585858" stroke-width="0.5"/>
<rect id="bin_s5_f17" x="985.75" y="21.75" width="33.5" height="20.5" fill="#222222" stroke="#585858" stroke-width="0.5"/>
<rect id="bin_s4_f17" x="985.75" y="42.75" width="33.5" height="20.5" fill="#222222" stroke="#585858" stroke-width="0.5"/>
<rect id="bin_s3_f17" x="985.75" y="63.75" width="33.5" height="20.5" fill="#222222" stroke="#585858" stroke-width="0.5"/>
<rect id="bin_s2_f17" x="985.75" y="84.75" width="33.5" height="20.5" fill="#222222" stroke="#585858" stroke-width="0.5"/>
<rect id="bin_s1_f17" x="985.75" y="105.75" width="33.5" height="20.5" fill="#222222" stroke="#585858" stroke-width="0.5"/>
</g>
<g id="F18">
<rect id="bin_s6_f18" x="1020.75" y="0.75" width="31.5" height="20.5" fill="#222222" stroke="#585858" stroke-width="0.5"/>
<rect id="bin_s5_f18" x="1020.75" y="21.75" width="31.5" height="20.5" fill="#222222" stroke="#585858" stroke-width="0.5"/>
<rect id="bin_s4_f18" x="1020.75" y="42.75" width="31.5" height="20.5" fill="#222222" stroke="#585858" stroke-width="0.5"/>
<rect id="bin_s3_f18" x="1020.75" y="63.75" width="31.5" height="20.5" fill="#222222" stroke="#585858" stroke-width="0.5"/>
<rect id="bin_s2_f18" x="1020.75" y="84.75" width="31.5" height="20.5" fill="#222222" stroke="#585858" stroke-width="0.5"/>
<rect id="bin_s1_f18" x="1020.75" y="105.75" width="31.5" height="20.5" fill="#222222" stroke="#585858" stroke-width="0.5"/>
</g>
<g id="F19">
<rect id="bin_s6_f19" x="1053.75" y="0.75" width="30" height="20.5" fill="#222222" stroke="#585858" stroke-width="0.5"/>
<rect id="bin_s5_f19" x="1053.75" y="21.75" width="30" height="20.5" fill="#222222" stroke="#585858" stroke-width="0.5"/>
<rect id="bin_s4_f19" x="1053.75" y="42.75" width="30" height="20.5" fill="#222222" stroke="#585858" stroke-width="0.5"/>
<rect id="bin_s3_f19" x="1053.75" y="63.75" width="30" height="20.5" fill="#222222" stroke="#585858" stroke-width="0.5"/>
<rect id="bin_s2_f19" x="1053.75" y="84.75" width="30" height="20.5" fill="#222222" stroke="#585858" stroke-width="0.5"/>
<rect id="bin_s1_f19" x="1053.75" y="105.75" width="30" height="20.5" fill="#222222" stroke="#585858" stroke-width="0.5"/>
</g>
<g id="F20">
<rect id="bin_s6_f20" x="1085.25" y="0.75" width="28" height="20.5" fill="#222222" stroke="#585858" stroke-width="0.5"/>
<rect id="bin_s5_f20" x="1085.25" y="21.75" width="28" height="20.5" fill="#222222" stroke="#585858" stroke-width="0.5"/>
<rect id="bin_s4_f20" x="1085.25" y="42.75" width="28" height="20.5" fill="#222222" stroke="#585858" stroke-width="0.5"/>
<rect id="bin_s3_f20" x="1085.25" y="63.75" width="28" height="20.5" fill="#222222" stroke="#585858" stroke-width="0.5"/>
<rect id="bin_s2_f20" x="1085.25" y="84.75" width="28" height="20.5" fill="#222222" stroke="#585858" stroke-width="0.5"/>
<rect id="bin_s1_f20" x="1085.25" y="105.75" width="28" height="20.5" fill="#222222" stroke="#585858" stroke-width="0.5"/>
</g>
<g id="F21">
<rect id="bin_s6_f21" x="1114.75" y="0.75" width="26" height="20.5" fill="#222222" stroke="#585858" stroke-width="0.5"/>
<rect id="bin_s5_f21" x="1114.75" y="21.75" width="26" height="20.5" fill="#222222" stroke="#585858" stroke-width="0.5"/>
<rect id="bin_s4_f21" x="1114.75" y="42.75" width="26" height="20.5" fill="#222222" stroke="#585858" stroke-width="0.5"/>
<rect id="bin_s3_f21" x="1114.75" y="63.75" width="26" height="20.5" fill="#222222" stroke="#585858" stroke-width="0.5"/>
<rect id="bin_s2_f21" x="1114.75" y="84.75" width="26" height="20.5" fill="#222222" stroke="#585858" stroke-width="0.5"/>
<rect id="bin_s1_f21" x="1114.75" y="105.75" width="26" height="20.5" fill="#222222" stroke="#585858" stroke-width="0.5"/>
</g>
<g id="F22">
<rect id="bin_s6_f22" x="1142.25" y="0.75" width="24.5" height="20.5" fill="#222222" stroke="#585858" stroke-width="0.5"/>
<rect id="bin_s5_f22" x="1142.25" y="21.75" width="24.5" height="20.5" fill="#222222" stroke="#585858" stroke-width="0.5"/>
<rect id="bin_s4_f22" x="1142.25" y="42.75" width="24.5" height="20.5" fill="#222222" stroke="#585858" stroke-width="0.5"/>
<rect id="bin_s3_f22" x="1142.25" y="63.75" width="24.5" height="20.5" fill="#222222" stroke="#585858" stroke-width="0.5"/>
<rect id="bin_s2_f22" x="1142.25" y="84.75" width="24.5" height="20.5" fill="#222222" stroke="#585858" stroke-width="0.5"/>
<rect id="bin_s1_f22" x="1142.25" y="105.75" width="24.5" height="20.5" fill="#222222" stroke="#585858" stroke-width="0.5"/>
</g>
<g id="F23">
<rect id="bin_s6_f23" x="1168.25" y="0.75" width="23" height="20.5" fill="#222222" stroke="#585858" stroke-width="0.5"/>
<rect id="bin_s5_f23" x="1168.25" y="21.75" width="23" height="20.5" fill="#222222" stroke="#585858" stroke-width="0.5"/>
<rect id="bin_s4_f23" x="1168.25" y="42.75" width="23" height="20.5" fill="#222222" stroke="#585858" stroke-width="0.5"/>
<rect id="bin_s3_f23" x="1168.25" y="63.75" width="23" height="20.5" fill="#222222" stroke="#585858" stroke-width="0.5"/>
<rect id="bin_s2_f23" x="1168.25" y="84.75" width="23" height="20.5" fill="#222222" stroke="#585858" stroke-width="0.5"/>
<rect id="bin_s1_f23" x="1168.25" y="105.75" width="23" height="20.5" fill="#222222" stroke="#585858" stroke-width="0.5"/>
</g>
<g id="F24">
<rect id="bin_s6_f24" x="1192.75" y="0.75" width="23" height="20.5" fill="#222222" stroke="#585858" stroke-width="0.5"/>
<rect id="bin_s5_f24" x="1192.75" y="21.75" width="23" height="20.5" fill="#222222" stroke="#585858" stroke-width="0.5"/>
<rect id="bin_s4_f24" x="1192.75" y="42.75" width="23" height="20.5" fill="#222222" stroke="#585858" stroke-width="0.5"/>
<rect id="bin_s3_f24" x="1192.75" y="63.75" width="23" height="20.5" fill="#222222" stroke="#585858" stroke-width="0.5"/>
<rect id="bin_s2_f24" x="1192.75" y="84.75" width="23" height="20.5" fill="#222222" stroke="#585858" stroke-width="0.5"/>
<rect id="bin_s1_f24" x="1192.75" y="105.75" width="23" height="20.5" fill="#222222" stroke="#585858" stroke-width="0.5"/>
</g>
</g>
<path id="Fret" d="M35.8901 0V126.612" stroke="#EFEFEF"/>
</g>
</svg>
